<svg width="16" height="16" viewBox="0 0 16 16" fill="none" xmlns="http://www.w3.org/2000/svg">
<path d="M16.0003 10.5079C16.0003 7.99315 13.9545 5.94727 11.4397 5.94727C9.94191 5.94727 8.61044 6.67318 7.77854 7.79161C7.44614 7.72168 7.10175 7.68464 6.74884 7.68464C6.37344 7.68464 6.00768 7.72655 5.65582 7.80543C4.00006 8.17648 2.65239 9.37193 2.06789 10.9367C1.8651 11.4796 1.75391 12.0668 1.75391 12.6796C1.75391 13.0394 2.04561 13.3311 2.40542 13.3311H7.86059C8.69652 14.3886 9.99017 15.0685 11.4397 15.0685C13.9545 15.0685 16.0003 13.0226 16.0003 10.5079ZM8.18217 10.5079C8.18217 9.63874 8.52496 8.84872 9.08161 8.26396C9.67536 7.64029 10.5126 7.25029 11.4397 7.25029C13.236 7.25029 14.6973 8.71164 14.6973 10.5079C14.6973 12.3041 13.236 13.7654 11.4397 13.7654C10.8494 13.7654 10.2957 13.6068 9.81773 13.3311C8.84133 12.7679 8.18217 11.7138 8.18217 10.5079Z" fill="white"/>
<path d="M1.41699 3.65634C1.41699 4.68425 2.21475 5.52874 3.2236 5.60467C2.90296 5.02691 2.72002 4.36262 2.72002 3.65634C2.72002 2.95005 2.90296 2.28573 3.2236 1.70801C2.21475 1.78389 1.41699 2.62842 1.41699 3.65634Z" fill="white"/>
<path d="M0.651514 10.9371H0.696034C1.19991 9.18976 2.44174 7.75239 4.06062 6.98525C3.83607 6.93847 3.60535 6.91406 3.37145 6.91406C1.51242 6.91406 0 8.42653 0 10.2856C0 10.6454 0.291704 10.9371 0.651514 10.9371Z" fill="white"/>
<path d="M9.47448 3.65616C9.47448 2.15329 8.25185 0.930664 6.74898 0.930664C5.83282 0.930664 5.02143 1.38555 4.52701 2.08076C4.21042 2.52596 4.02344 3.0695 4.02344 3.65616C4.02344 4.24283 4.21042 4.78636 4.52701 5.23157C5.02143 5.92677 5.83286 6.38162 6.74898 6.38162C8.25185 6.38162 9.47448 5.15899 9.47448 3.65616Z" fill="white"/>
<path d="M12.7429 11.1595C13.1027 11.1595 13.3944 10.8678 13.3944 10.508C13.3944 10.1481 13.1027 9.85645 12.7429 9.85645H10.8666H10.1369C9.77706 9.85645 9.48535 10.1481 9.48535 10.508C9.48535 10.8678 9.77706 11.1595 10.1369 11.1595H11.507H12.7429Z" fill="white"/>
</svg>
