<svg width="16" height="16" viewBox="0 0 16 16" fill="none" xmlns="http://www.w3.org/2000/svg">
<path d="M6.84819 12.1005L4.87962 12.91L5.486 13.5001L3.94263 15.086L3.05938 14.2265C2.73419 13.91 2.47563 13.5315 2.299 13.1135L2.12675 12.7058L1.43981 12.0373L1.11456 12.38L0.125 11.5576V6.09334L4.181 9.14952L3.80975 9.54065C5.22194 10.0565 6.80606 9.87684 8.07331 9.03596L8.217 8.94059C8.50138 8.75196 8.87875 8.78715 9.12331 9.02509L9.492 9.3839L6.84819 12.1005ZM15.6858 8.66127L13.8503 6.82584C13.7291 6.70471 13.5648 6.63665 13.3935 6.63665H11.645L12.5021 4.26421H15.1368C15.4086 4.26421 15.6289 4.04384 15.6289 3.77202C15.6289 3.50021 15.4086 3.27984 15.1368 3.27984H10.9506C10.7281 3.27984 10.5118 3.32465 10.3077 3.41296L8.79169 4.0689L7.6055 2.87646C7.41394 2.68377 7.10219 2.68284 6.9095 2.87465C6.71675 3.06627 6.71594 3.3779 6.90763 3.57065L8.33037 5.00109C8.44037 5.11159 8.62675 5.19621 8.87475 5.10571L10.0241 4.6084L9.14637 7.04909C9.05637 7.27952 9.07294 7.59834 9.2345 7.78021L10.6308 9.24971L10.1687 11.348C10.0921 11.6964 10.3124 12.0411 10.6608 12.1178C10.7076 12.1281 10.7542 12.133 10.8003 12.133C11.097 12.133 11.3642 11.9274 11.4306 11.6258L11.9634 9.2059C12.0079 9.00384 11.9529 8.79277 11.8156 8.63809L11.1858 7.92877H13.1259L14.7722 9.57502C15.0246 9.82721 15.4336 9.82734 15.6858 9.57502C15.9381 9.32265 15.9381 8.91359 15.6858 8.66127ZM7.34319 7.02571L7.7775 6.52565L8.4025 7.61359L7.34319 7.02571ZM6.03125 8.8004L6.19019 7.78015L8 8.19284L6.03125 8.8004ZM10.3914 1.9359C10.3914 2.50077 10.8493 2.95871 11.4142 2.95871C11.9791 2.95871 12.437 2.50077 12.437 1.9359C12.437 1.37102 11.9791 0.913086 11.4142 0.913086C10.8493 0.913086 10.3914 1.37102 10.3914 1.9359Z" fill="white"/>
</svg>
