<svg width="22" height="19" viewBox="0 0 22 19" fill="none" xmlns="http://www.w3.org/2000/svg">
<path d="M19.125 2.6875H16.3097L14.9254 0.611563C14.8512 0.500404 14.7508 0.409253 14.633 0.346185C14.5152 0.283118 14.3836 0.25008 14.25 0.25H7.75C7.61637 0.25008 7.48483 0.283118 7.36702 0.346185C7.24921 0.409253 7.14877 0.500404 7.07461 0.611563L5.6893 2.6875H2.875C2.22853 2.6875 1.60855 2.94431 1.15143 3.40143C0.694307 3.85855 0.4375 4.47853 0.4375 5.125V16.5C0.4375 17.1465 0.694307 17.7665 1.15143 18.2236C1.60855 18.6807 2.22853 18.9375 2.875 18.9375H19.125C19.7715 18.9375 20.3915 18.6807 20.8486 18.2236C21.3057 17.7665 21.5625 17.1465 21.5625 16.5V5.125C21.5625 4.47853 21.3057 3.85855 20.8486 3.40143C20.3915 2.94431 19.7715 2.6875 19.125 2.6875ZM19.9375 16.5C19.9375 16.7155 19.8519 16.9222 19.6995 17.0745C19.5472 17.2269 19.3405 17.3125 19.125 17.3125H2.875C2.65951 17.3125 2.45285 17.2269 2.30048 17.0745C2.1481 16.9222 2.0625 16.7155 2.0625 16.5V5.125C2.0625 4.90951 2.1481 4.70285 2.30048 4.55048C2.45285 4.3981 2.65951 4.3125 2.875 4.3125H6.125C6.2588 4.31259 6.39055 4.27963 6.50855 4.21655C6.62655 4.15348 6.72715 4.06224 6.80141 3.95094L8.18469 1.875H13.8143L15.1986 3.95094C15.2729 4.06224 15.3734 4.15348 15.4914 4.21655C15.6094 4.27963 15.7412 4.31259 15.875 4.3125H19.125C19.3405 4.3125 19.5472 4.3981 19.6995 4.55048C19.8519 4.70285 19.9375 4.90951 19.9375 5.125V16.5ZM11 5.9375C10.1162 5.9375 9.25218 6.19959 8.5173 6.69062C7.78241 7.18165 7.20964 7.87958 6.87141 8.69613C6.53318 9.51269 6.44469 10.4112 6.61712 11.2781C6.78954 12.1449 7.21515 12.9412 7.84012 13.5661C8.46508 14.1911 9.26134 14.6167 10.1282 14.7891C10.995 14.9616 11.8936 14.8731 12.7101 14.5348C13.5267 14.1966 14.2246 13.6238 14.7156 12.889C15.2067 12.1541 15.4688 11.2901 15.4688 10.4062C15.4674 9.22148 14.9962 8.08561 14.1584 7.24785C13.3206 6.41009 12.1848 5.93884 11 5.9375ZM11 13.25C10.4376 13.25 9.88775 13.0832 9.4201 12.7707C8.95245 12.4583 8.58795 12.0141 8.37272 11.4945C8.15748 10.9749 8.10116 10.4031 8.21089 9.85146C8.32062 9.29983 8.59146 8.79312 8.98917 8.39542C9.38687 7.99771 9.89358 7.72687 10.4452 7.61714C10.9968 7.50741 11.5686 7.56373 12.0883 7.77897C12.6079 7.9942 13.052 8.3587 13.3645 8.82635C13.677 9.294 13.8438 9.84381 13.8438 10.4062C13.8438 11.1605 13.5441 11.8838 13.0108 12.4171C12.4775 12.9504 11.7542 13.25 11 13.25Z" fill="white"/>
</svg>
