<svg width="15" height="14" viewBox="0 0 15 14" fill="none" xmlns="http://www.w3.org/2000/svg">
<path d="M10.8332 0.25H10.8332C11.3228 0.249968 11.7938 0.437276 12.1496 0.773499C12.5046 1.10891 12.7182 1.56715 12.7467 2.05461L12.7498 2.17005V5.58307C12.5878 5.50017 12.4208 5.42701 12.2498 5.364V2.16667C12.2498 1.81112 12.1161 1.46859 11.8753 1.20706C11.6344 0.94552 11.3041 0.784103 10.9497 0.754848L10.9498 0.754641L10.9396 0.754217L10.8436 0.750217L10.8436 0.75H10.8332H3.1665C2.75758 0.75 2.38882 0.923456 2.13045 1.20059C1.95523 1.13253 1.77069 1.09355 1.58415 1.08459C1.70813 0.903506 1.86286 0.744139 2.04237 0.614212C2.33848 0.399895 2.68962 0.274635 3.05447 0.253137L3.1699 0.25H10.8332ZM6.58287 11.75H3.1665L3.16649 11.75C2.67692 11.75 2.2059 11.5627 1.85004 11.2265C1.49506 10.8911 1.28153 10.4329 1.25298 9.94541L1.24984 9.82994V4.56594C1.41563 4.5899 1.58404 4.5899 1.74984 4.56594V9.83333V9.83335C1.74987 10.189 1.88368 10.5317 2.12469 10.7932C2.36569 11.0548 2.69627 11.2161 3.05074 11.2452L3.05073 11.2454L3.06069 11.2458L3.15602 11.2498L3.15602 11.25H3.1665H6.36386C6.42718 11.4218 6.50037 11.5887 6.58287 11.75ZM11.2505 11.6686L11.2499 10.25H12.6645C12.8192 10.25 12.9676 10.1885 13.077 10.0791C13.1864 9.96975 13.2478 9.82138 13.2478 9.66667C13.2478 9.51196 13.1864 9.36359 13.077 9.25419C12.9676 9.14479 12.8192 9.08333 12.6645 9.08333H11.2498V7.66667C11.2498 7.51196 11.1884 7.36358 11.079 7.25419C10.9696 7.14479 10.8212 7.08333 10.6665 7.08333C10.5118 7.08333 10.3634 7.14479 10.254 7.25419C10.1446 7.36358 10.0832 7.51196 10.0832 7.66667V9.08333H8.66384C8.50913 9.08333 8.36076 9.14479 8.25136 9.25419C8.14196 9.36359 8.0805 9.51196 8.0805 9.66667C8.0805 9.82138 8.14196 9.96975 8.25136 10.0791C8.36076 10.1885 8.50913 10.25 8.66384 10.25H10.0838V11.6687C10.0838 11.8234 10.1453 11.9717 10.2547 12.0811C10.3641 12.1905 10.5125 12.252 10.6672 12.252C10.8219 12.252 10.9703 12.1905 11.0796 12.0811C11.189 11.9717 11.2505 11.8234 11.2505 11.6687V11.6686ZM4.83991 6.91867H6.99823C6.87875 7.07797 6.76967 7.24498 6.67171 7.41867H4.83163C4.76845 7.41841 4.7077 7.39424 4.66161 7.35101C4.61545 7.30771 4.58743 7.24852 4.5832 7.18538C4.57897 7.12223 4.59885 7.05983 4.63882 7.01077C4.67733 6.9635 4.73173 6.93199 4.79173 6.92204L4.83991 6.91867ZM9.16776 4.58067C9.16779 4.58067 9.16781 4.58067 9.16784 4.58067C9.23115 4.58071 9.29209 4.60477 9.33836 4.64799C9.38464 4.69123 9.41279 4.75043 9.4171 4.81363C9.42142 4.87682 9.40159 4.9393 9.36162 4.98843C9.32313 5.03574 9.26874 5.06728 9.20875 5.07727L9.15927 5.08067H4.83191C4.83189 5.08067 4.83186 5.08067 4.83184 5.08067C4.76852 5.08063 4.70758 5.05657 4.66132 5.01334C4.61503 4.9701 4.58689 4.9109 4.58257 4.84771C4.57825 4.78451 4.59809 4.72204 4.63806 4.6729C4.67654 4.6256 4.73093 4.59405 4.79093 4.58406L4.84041 4.58067H9.16776ZM1.49984 2.25C1.65455 2.25 1.80292 2.31146 1.91232 2.42085C2.02171 2.53025 2.08317 2.67862 2.08317 2.83333C2.08317 2.98804 2.02171 3.13642 1.91232 3.24581C1.80292 3.35521 1.65455 3.41667 1.49984 3.41667C1.34513 3.41667 1.19675 3.35521 1.08736 3.24581C0.977962 3.13642 0.916504 2.98804 0.916504 2.83333C0.916504 2.67862 0.977962 2.53025 1.08736 2.42085C1.19675 2.31146 1.34513 2.25 1.49984 2.25ZM13.0825 7.25072C13.7232 7.89147 14.0832 8.76051 14.0832 9.66667C14.0832 10.5728 13.7232 11.4419 13.0825 12.0826C12.4417 12.7234 11.5727 13.0833 10.6665 13.0833C9.76035 13.0833 8.8913 12.7234 8.25056 12.0826C7.60981 11.4419 7.24984 10.5728 7.24984 9.66667C7.24984 8.76051 7.60981 7.89147 8.25056 7.25072C8.8913 6.60997 9.76035 6.25 10.6665 6.25C11.5727 6.25 12.4417 6.60997 13.0825 7.25072Z" stroke="white" stroke-width="0.5"/>
</svg>
