<svg width="15" height="22" viewBox="0 0 15 22" fill="none" xmlns="http://www.w3.org/2000/svg">
<path d="M10.272 9.445L14 1M5.316 9.632L1 1M8.762 9.048L4.835 1M10.36 1L9.32 3.5M2 15C2 16.5913 2.63214 18.1174 3.75736 19.2426C4.88258 20.3679 6.4087 21 8 21C9.5913 21 11.1174 20.3679 12.2426 19.2426C13.3679 18.1174 14 16.5913 14 15C14 13.4087 13.3679 11.8826 12.2426 10.7574C11.1174 9.63214 9.5913 9 8 9C6.4087 9 4.88258 9.63214 3.75736 10.7574C2.63214 11.8826 2 13.4087 2 15Z" stroke="white" stroke-linecap="round" stroke-linejoin="round"/>
</svg>
