<svg width="32" height="33" viewBox="0 0 32 33" fill="none" xmlns="http://www.w3.org/2000/svg">
<g clip-path="url(#clip0_1220_3773)">
<path d="M32.0011 19.1608V13.1608H28.9982V10.0228C29.7596 9.82542 30.4461 9.40879 30.9723 8.82473C31.4986 8.24067 31.8414 7.51494 31.9581 6.73779L29.9821 6.45579C29.9318 6.81177 29.7863 7.1476 29.561 7.42795C29.3357 7.7083 29.039 7.9228 28.702 8.04888C28.3649 8.17495 28.0001 8.20794 27.6459 8.14437C27.2917 8.08081 26.9613 7.92303 26.6892 7.68765C26.4172 7.45228 26.2137 7.148 26.1002 6.80684C25.9867 6.46569 25.9673 6.10026 26.0441 5.74903C26.1209 5.3978 26.2911 5.07374 26.5367 4.81096C26.7822 4.54818 27.0942 4.3564 27.4397 4.25579L26.8741 2.34079C26.0368 2.58728 25.3035 3.10122 24.7865 3.80388C24.2695 4.50655 23.9974 5.35916 24.0118 6.2311C24.0263 7.10304 24.3264 7.94621 24.8664 8.63142C25.4063 9.31663 26.1563 9.80608 27.0013 10.0248V13.1608H17.0016V11.0208C17.9452 10.7774 18.7675 10.1986 19.3144 9.39279C19.8614 8.58701 20.0954 7.60961 19.9726 6.64379C19.8498 5.67798 19.3786 4.79006 18.6474 4.14647C17.9162 3.50288 16.9751 3.14781 16.0006 3.14781C15.0261 3.14781 14.085 3.50288 13.3538 4.14647C12.6226 4.79006 12.1514 5.67798 12.0286 6.64379C11.9058 7.60961 12.1399 8.58701 12.6868 9.39279C13.2337 10.1986 14.0561 10.7774 14.9996 11.0208V13.1608H5.00095V8.02679C5.94452 7.7834 6.76685 7.20456 7.31379 6.39878C7.86074 5.59301 8.09474 4.61561 7.97195 3.64979C7.84916 2.68398 7.37799 1.79606 6.64678 1.15247C5.91556 0.508881 4.9745 0.153809 3.99998 0.153809C3.02546 0.153809 2.0844 0.508881 1.35319 1.15247C0.621971 1.79606 0.150809 2.68398 0.0280156 3.64979C-0.0947778 4.61561 0.139228 5.59301 0.68617 6.39878C1.23311 7.20456 2.05544 7.7834 2.99901 8.02679V13.1608H-0.0038965V19.1608H9.00083V21.3008C8.05725 21.5442 7.23493 22.123 6.68798 22.9288C6.14104 23.7346 5.90704 24.712 6.02983 25.6778C6.15262 26.6436 6.62379 27.5315 7.355 28.1751C8.08621 28.8187 9.02728 29.1738 10.0018 29.1738C10.9763 29.1738 11.9174 28.8187 12.6486 28.1751C13.3798 27.5315 13.851 26.6436 13.9738 25.6778C14.0966 24.712 13.8626 23.7346 13.3156 22.9288C12.7687 22.123 11.9463 21.5442 11.0028 21.3008V19.1608H21.0025V24.2978C20.0589 24.5412 19.2366 25.12 18.6896 25.9258C18.1427 26.7316 17.9087 27.709 18.0315 28.6748C18.1542 29.6406 18.6254 30.5285 19.3566 31.1721C20.0878 31.8157 21.0289 32.1708 22.0034 32.1708C22.9779 32.1708 23.919 31.8157 24.6502 31.1721C25.3814 30.5285 25.8526 29.6406 25.9754 28.6748C26.0982 27.709 25.8642 26.7316 25.3172 25.9258C24.7703 25.12 23.948 24.5412 23.0044 24.2978V19.1608H32.0011ZM26.0013 15.1608H30.0052V17.1608H26.0013V15.1608ZM14.0007 7.16979C14.0007 6.77423 14.1181 6.38755 14.3381 6.05865C14.558 5.72975 14.8707 5.47341 15.2365 5.32203C15.6023 5.17066 16.0048 5.13105 16.3932 5.20822C16.7815 5.28539 17.1382 5.47587 17.4182 5.75558C17.6982 6.03528 17.8888 6.39165 17.9661 6.77961C18.0433 7.16757 18.0037 7.56971 17.8522 7.93516C17.7006 8.30061 17.444 8.61297 17.1148 8.83273C16.7856 9.05249 16.3986 9.16979 16.0026 9.16979C15.4717 9.16979 14.9625 8.95908 14.587 8.58401C14.2116 8.20893 14.0007 7.70022 14.0007 7.16979ZM2.00105 4.16979C2.00105 3.77423 2.11846 3.38755 2.33843 3.05865C2.55841 2.72975 2.87107 2.47341 3.23688 2.32203C3.60268 2.17066 4.00521 2.13105 4.39354 2.20822C4.78188 2.28539 5.13859 2.47587 5.41857 2.75558C5.69855 3.03528 5.88921 3.39165 5.96646 3.77961C6.0437 4.16757 6.00406 4.56971 5.85254 4.93516C5.70101 5.30061 5.44442 5.61297 5.1152 5.83273C4.78599 6.05249 4.39893 6.16979 4.00299 6.16979C3.47256 6.16979 2.96381 5.95949 2.58846 5.58507C2.21311 5.21064 2.00184 4.7027 2.00105 4.17279V4.16979ZM6.00092 17.1608H1.99704V15.1608H6.00092V17.1608ZM12.0007 25.1528C12.0007 25.5484 11.8833 25.935 11.6633 26.2639C11.4434 26.5928 11.1307 26.8492 10.7649 27.0006C10.3991 27.1519 9.99657 27.1915 9.60824 27.1144C9.2199 27.0372 8.86318 26.8467 8.58321 26.567C8.30323 26.2873 8.11257 25.9309 8.03532 25.543C7.95808 25.155 7.99772 24.7529 8.14924 24.3874C8.30077 24.022 8.55736 23.7096 8.88658 23.4899C9.21579 23.2701 9.60285 23.1528 9.99879 23.1528C10.5296 23.1528 11.0386 23.3634 11.414 23.7382C11.7894 24.1131 12.0005 24.6215 12.0007 25.1518V25.1528ZM12.0007 17.1608H7.99685V15.1608H12.0007V17.1608ZM18.0005 17.1608H13.9967V15.1608H18.0005V17.1608ZM24.0004 28.1498C24.0004 28.5454 23.8829 28.932 23.663 29.2609C23.443 29.5898 23.1303 29.8462 22.7645 29.9976C22.3987 30.1489 21.9962 30.1885 21.6079 30.1114C21.2195 30.0342 20.8628 29.8437 20.5828 29.564C20.3029 29.2843 20.1122 28.9279 20.0349 28.54C19.9577 28.152 19.9973 27.7499 20.1489 27.3844C20.3004 27.019 20.557 26.7066 20.8862 26.4869C21.2154 26.2671 21.6025 26.1498 21.9984 26.1498C22.5292 26.1498 23.0382 26.3604 23.4136 26.7352C23.7891 27.1101 24.0001 27.6195 24.0004 28.1498ZM20.0005 17.1608V15.1608H24.0044V17.1608H20.0005Z" fill="white"/>
<path d="M29.7327 5.17143L31.4633 4.17143C31.0131 3.39801 30.3179 2.79637 29.4874 2.46143L28.7417 4.31443C29.1581 4.48224 29.5068 4.78376 29.7327 5.17143Z" fill="white"/>
</g>
<defs>
<clipPath id="clip0_1220_3773">
<rect width="32" height="32" fill="white" transform="translate(0 0.160645)"/>
</clipPath>
</defs>
</svg>
