<svg width="52" height="52" viewBox="0 0 52 52" fill="none" xmlns="http://www.w3.org/2000/svg">
<g filter="url(#filter0_d_776_2551)">
<path d="M16.75 20.5714C16.75 19.8282 16.7504 19.3101 16.7794 18.9051C16.8078 18.5073 16.8609 18.2763 16.9377 18.1002C17.1647 17.58 17.58 17.1647 18.1002 16.9377C18.2763 16.8609 18.5073 16.8078 18.9051 16.7794C19.3101 16.7504 19.8282 16.75 20.5714 16.75C21.3147 16.75 21.8327 16.7504 22.2377 16.7794C22.6356 16.8078 22.8666 16.8609 23.0426 16.9377C23.5629 17.1647 23.9781 17.58 24.2051 18.1002C24.2819 18.2763 24.3351 18.5073 24.3635 18.9051C24.3924 19.3101 24.3929 19.8282 24.3929 20.5714C24.3929 21.3147 24.3924 21.8327 24.3635 22.2377C24.3351 22.6356 24.2819 22.8666 24.2051 23.0426C23.9781 23.5629 23.5629 23.9781 23.0426 24.2051C22.8666 24.2819 22.6356 24.3351 22.2377 24.3635C21.8327 24.3924 21.3147 24.3929 20.5714 24.3929C19.8282 24.3929 19.3101 24.3924 18.9051 24.3635C18.5073 24.3351 18.2763 24.2819 18.1002 24.2051C17.58 23.9781 17.1647 23.5629 16.9377 23.0426C16.8609 22.8666 16.8078 22.6356 16.7794 22.2377C16.7504 21.8327 16.75 21.3147 16.75 20.5714Z" stroke="white" stroke-width="1.5"/>
<path d="M16.75 31.4284C16.75 30.6851 16.7504 30.1671 16.7794 29.7621C16.8078 29.3642 16.8609 29.1332 16.9377 28.9572C17.1647 28.4369 17.58 28.0217 18.1002 27.7947C18.2763 27.7179 18.5073 27.6647 18.9051 27.6363C19.3101 27.6074 19.8282 27.6069 20.5714 27.6069C21.3147 27.6069 21.8327 27.6074 22.2377 27.6363C22.6356 27.6647 22.8666 27.7179 23.0426 27.7947C23.5629 28.0217 23.9781 28.4369 24.2051 28.9572C24.2819 29.1332 24.3351 29.3642 24.3635 29.7621C24.3924 30.1671 24.3929 30.6851 24.3929 31.4284C24.3929 32.1716 24.3924 32.6896 24.3635 33.0947C24.3351 33.4925 24.2819 33.7235 24.2051 33.8995C23.9781 34.4198 23.5629 34.8351 23.0426 35.0621C22.8666 35.1389 22.6356 35.192 22.2377 35.2204C21.8327 35.2493 21.3147 35.2498 20.5714 35.2498C19.8282 35.2498 19.3101 35.2493 18.9051 35.2204C18.5073 35.192 18.2763 35.1389 18.1002 35.0621C17.58 34.8351 17.1647 34.4198 16.9377 33.8995C16.8609 33.7235 16.8078 33.4925 16.7794 33.0947C16.7504 32.6896 16.75 32.1716 16.75 31.4284Z" stroke="white" stroke-width="1.5"/>
<path d="M27.6069 20.5714C27.6069 19.8282 27.6074 19.3101 27.6363 18.9051C27.6647 18.5073 27.7179 18.2763 27.7947 18.1002C28.0217 17.58 28.4369 17.1647 28.9572 16.9377C29.1332 16.8609 29.3642 16.8078 29.7621 16.7794C30.1671 16.7504 30.6851 16.75 31.4284 16.75C32.1716 16.75 32.6896 16.7504 33.0947 16.7794C33.4925 16.8078 33.7235 16.8609 33.8995 16.9377C34.4198 17.1647 34.8351 17.58 35.0621 18.1002C35.1389 18.2763 35.192 18.5073 35.2204 18.9051C35.2493 19.3101 35.2498 19.8282 35.2498 20.5714C35.2498 21.3147 35.2493 21.8327 35.2204 22.2377C35.192 22.6356 35.1389 22.8666 35.0621 23.0426C34.8351 23.5629 34.4198 23.9781 33.8995 24.2051C33.7235 24.2819 33.4925 24.3351 33.0947 24.3635C32.6896 24.3924 32.1716 24.3929 31.4284 24.3929C30.6851 24.3929 30.1671 24.3924 29.7621 24.3635C29.3642 24.3351 29.1332 24.2819 28.9572 24.2051C28.4369 23.9781 28.0217 23.5629 27.7947 23.0426C27.7179 22.8666 27.6647 22.6356 27.6363 22.2377C27.6074 21.8327 27.6069 21.3147 27.6069 20.5714Z" stroke="white" stroke-width="1.5"/>
<path d="M27.6069 31.4284C27.6069 30.6851 27.6074 30.1671 27.6363 29.7621C27.6647 29.3642 27.7179 29.1332 27.7947 28.9572C28.0217 28.4369 28.4369 28.0217 28.9572 27.7947C29.1332 27.7179 29.3642 27.6647 29.7621 27.6363C30.1671 27.6074 30.6851 27.6069 31.4284 27.6069C32.1716 27.6069 32.6896 27.6074 33.0947 27.6363C33.4925 27.6647 33.7235 27.7179 33.8995 27.7947C34.4198 28.0217 34.8351 28.4369 35.0621 28.9572C35.1389 29.1332 35.192 29.3642 35.2204 29.7621C35.2493 30.1671 35.2498 30.6851 35.2498 31.4284C35.2498 32.1716 35.2493 32.6896 35.2204 33.0947C35.192 33.4925 35.1389 33.7235 35.0621 33.8995C34.8351 34.4198 34.4198 34.8351 33.8995 35.0621C33.7235 35.1389 33.4925 35.192 33.0947 35.2204C32.6896 35.2493 32.1716 35.2498 31.4284 35.2498C30.6851 35.2498 30.1671 35.2493 29.7621 35.2204C29.3642 35.192 29.1332 35.1389 28.9572 35.0621C28.4369 34.8351 28.0217 34.4198 27.7947 33.8995C27.7179 33.7235 27.6647 33.4925 27.6363 33.0947C27.6074 32.6896 27.6069 32.1716 27.6069 31.4284Z" stroke="white" stroke-width="1.5"/>
</g>
<defs>
<filter id="filter0_d_776_2551" x="-2" y="-2" width="56" height="56" filterUnits="userSpaceOnUse" color-interpolation-filters="sRGB">
<feFlood flood-opacity="0" result="BackgroundImageFix"/>
<feColorMatrix in="SourceAlpha" type="matrix" values="0 0 0 0 0 0 0 0 0 0 0 0 0 0 0 0 0 0 127 0" result="hardAlpha"/>
<feOffset/>
<feGaussianBlur stdDeviation="8"/>
<feComposite in2="hardAlpha" operator="out"/>
<feColorMatrix type="matrix" values="0 0 0 0 1 0 0 0 0 1 0 0 0 0 1 0 0 0 1 0"/>
<feBlend mode="overlay" in2="BackgroundImageFix" result="effect1_dropShadow_776_2551"/>
<feBlend mode="normal" in="SourceGraphic" in2="effect1_dropShadow_776_2551" result="shape"/>
</filter>
</defs>
</svg>
