<svg width="24" height="24" viewBox="0 0 24 24" fill="none" xmlns="http://www.w3.org/2000/svg">
<g clip-path="url(#clip0_1628_6038)">
<path fill-rule="evenodd" clip-rule="evenodd" d="M16 3.34011C16.9835 3.90786 17.8349 4.67853 18.4976 5.60085C19.1602 6.52317 19.6189 7.576 19.8431 8.68932C20.0673 9.80265 20.0519 10.9509 19.7979 12.0579C19.5439 13.1648 19.0571 14.2049 18.37 15.1091C19.1939 15.3227 19.9117 15.829 20.3894 16.5335C20.867 17.238 21.0716 18.0923 20.965 18.9367C20.8584 19.7811 20.4478 20.5578 19.81 21.1214C19.1723 21.685 18.3511 21.9971 17.5 21.9991C16.9986 21.9991 16.5031 21.8914 16.0469 21.6833C15.5908 21.4751 15.1847 21.1714 14.8562 20.7927C14.5276 20.414 14.2843 19.9691 14.1426 19.4882C14.0009 19.0072 13.9642 18.5015 14.035 18.0051C12.6649 18.3667 11.2233 18.3573 9.85797 17.9781L8.23197 20.7941C8.09935 21.0238 7.88094 21.1914 7.62477 21.26C7.36859 21.3286 7.09565 21.2927 6.86597 21.1601L5.13397 20.1601C4.90429 20.0275 4.73671 19.8091 4.66807 19.5529C4.59943 19.2967 4.63536 19.0238 4.76797 18.7941L6.39397 15.9781C5.00245 14.6143 4.15648 12.7895 4.01483 10.8463C3.87319 8.90299 4.4456 6.97483 5.62464 5.42364C6.80368 3.87245 8.5083 2.80487 10.4186 2.42126C12.3289 2.03764 14.3135 2.36436 16 3.34011ZM17.5 17.0001C17.1021 17.0001 16.7206 17.1581 16.4393 17.4394C16.158 17.7208 16 18.1023 16 18.5001C16 18.8979 16.158 19.2795 16.4393 19.5608C16.7206 19.8421 17.1021 20.0001 17.5 20.0001C17.8978 20.0001 18.2793 19.8421 18.5606 19.5608C18.8419 19.2795 19 18.8979 19 18.5001C19 18.1023 18.8419 17.7208 18.5606 17.4394C18.2793 17.1581 17.8978 17.0001 17.5 17.0001ZM8.66997 15.2731L8.65997 15.4191C8.63219 15.8839 8.49661 16.3358 8.26397 16.7391C8.45758 16.4037 8.7143 16.1089 9.01997 15.8711L9.20897 15.7351L9.33097 15.6551L8.66897 15.2731H8.66997ZM15 5.07211C13.8541 4.40976 12.5213 4.14491 11.2092 4.31879C9.8971 4.49266 8.67932 5.09551 7.74548 6.03347C6.81163 6.97142 6.21413 8.19183 6.04602 9.50467C5.8779 10.8175 6.1486 12.1491 6.81597 13.2921C6.85833 13.1605 6.92754 13.039 7.01922 12.9355C7.11091 12.8319 7.22307 12.7485 7.34863 12.6906C7.47418 12.6326 7.6104 12.6013 7.74868 12.5986C7.88695 12.5959 8.02427 12.622 8.15197 12.6751L8.26797 12.7321L11.732 14.7321C11.8611 14.8067 11.9719 14.9093 12.0563 15.0323C12.1407 15.1553 12.1965 15.2957 12.2196 15.443C12.2427 15.5904 12.2325 15.7411 12.1899 15.884C12.1472 16.0269 12.0731 16.1585 11.973 16.2691C13.2964 16.2754 14.5847 15.844 15.6375 15.042C16.6902 14.2401 17.4483 13.1126 17.7936 11.835C18.139 10.5575 18.0523 9.20157 17.547 7.97841C17.0418 6.75525 16.1463 5.73346 15 5.07211Z" fill="white"/>
</g>
<defs>
<clipPath id="clip0_1628_6038">
<rect width="24" height="24" fill="white"/>
</clipPath>
</defs>
</svg>
