<svg width="14" height="14" viewBox="0 0 14 14" fill="none" xmlns="http://www.w3.org/2000/svg">
<path d="M7.14958 12.3335C8.56406 12.3335 9.92062 11.7716 10.9208 10.7714C11.921 9.7712 12.4829 8.41465 12.4829 7.00016C12.4829 5.58567 11.921 4.22912 10.9208 3.22893C9.92062 2.22873 8.56406 1.66683 7.14958 1.66683C5.73509 1.66683 4.37853 2.22873 3.37834 3.22893C2.37815 4.22912 1.81624 5.58567 1.81624 7.00016C1.81624 8.41465 2.37815 9.7712 3.37834 10.7714C4.37853 11.7716 5.73509 12.3335 7.14958 12.3335ZM7.14958 0.333496C8.02506 0.333496 8.89196 0.505935 9.7008 0.840966C10.5096 1.176 11.2446 1.66706 11.8636 2.28612C12.4827 2.90517 12.9737 3.6401 13.3088 4.44894C13.6438 5.25778 13.8162 6.12468 13.8162 7.00016C13.8162 8.76827 13.1139 10.464 11.8636 11.7142C10.6134 12.9644 8.91769 13.6668 7.14958 13.6668C3.46291 13.6668 0.48291 10.6668 0.48291 7.00016C0.48291 5.23205 1.18529 3.53636 2.43553 2.28612C3.68577 1.03587 5.38147 0.333496 7.14958 0.333496ZM7.48291 3.66683V7.16683L10.4829 8.94683L9.98291 9.76683L6.48291 7.66683V3.66683H7.48291Z" fill="white"/>
</svg>
