<svg width="17" height="21" viewBox="0 0 17 21" fill="none" xmlns="http://www.w3.org/2000/svg">
<path d="M15.251 3.67383C14.1455 1.77832 12.6523 0.734375 11.0469 0.734375H6.35938C4.75391 0.734375 3.26074 1.77832 2.16016 3.67383C1.08594 5.50391 0.5 7.92773 0.5 10.5C0.5 13.0723 1.08594 15.4961 2.16016 17.3262C3.26074 19.2217 4.75391 20.2656 6.35938 20.2656H11.0469C12.6523 20.2656 14.1455 19.2217 15.251 17.3262C16.3203 15.4961 16.9062 13.0723 16.9062 10.5C16.9062 7.92773 16.3203 5.50391 15.251 3.67383ZM14.8818 16.3594H11.0566C11.7637 14.7832 12.167 12.8896 12.2129 10.8906H16.1191C16.0703 12.9189 15.6367 14.8242 14.8818 16.3594ZM12.2129 10.1094C12.167 8.11035 11.7637 6.2168 11.0566 4.64062H14.8818C15.6377 6.17578 16.0703 8.08105 16.1191 10.1094H12.2129ZM11.0469 1.51562C12.3057 1.51562 13.5068 2.34668 14.4492 3.85938H10.667C10.6328 3.79785 10.5986 3.73437 10.5635 3.67383C10.0186 2.74023 9.37988 2.01367 8.67969 1.51562H11.0469ZM2.83008 16.9326C1.83105 15.2207 1.28125 12.9414 1.28125 10.5C1.28125 8.05859 1.83105 5.7793 2.83008 4.06738C3.79004 2.42188 5.04297 1.51562 6.35938 1.51562C7.67578 1.51562 8.92871 2.42188 9.88867 4.06738C10.8877 5.7793 11.4375 8.06348 11.4375 10.5C11.4375 12.9365 10.8877 15.2207 9.88867 16.9326C8.92871 18.5781 7.67578 19.4844 6.35938 19.4844C5.04297 19.4844 3.79004 18.5781 2.83008 16.9326ZM11.0469 19.4844H8.67969C9.37988 18.9873 10.0186 18.2598 10.5635 17.3262C10.5986 17.2656 10.6328 17.2021 10.667 17.1406H14.4492C13.5068 18.6533 12.3057 19.4844 11.0469 19.4844Z" fill="white"/>
</svg>
