<svg width="32" height="32" viewBox="0 0 32 32" fill="none" xmlns="http://www.w3.org/2000/svg">
<path d="M16 26.6668C17.6667 26.6668 19.0836 26.0837 20.2507 24.9174C21.4178 23.7512 22.0009 22.3343 22 20.6668C22 19.0001 21.4169 17.5837 20.2507 16.4174C19.0844 15.2512 17.6676 14.6677 16 14.6668C14.3333 14.6668 12.9169 15.2503 11.7507 16.4174C10.5844 17.5846 10.0009 19.001 10 20.6668C10 22.3334 10.5836 23.7503 11.7507 24.9174C12.9178 26.0846 14.3342 26.6677 16 26.6668ZM12.1507 14.4468C12.5782 14.1677 13.0338 13.9432 13.5173 13.7734C14.0009 13.6037 14.4978 13.4792 15.008 13.4001L11.9733 7.38411H8.64L12.1507 14.4468ZM19.8493 14.4468L23.392 7.38411H20.0267L17.1173 13.1534L17.264 13.4468C17.728 13.5357 18.1769 13.6601 18.6107 13.8201C19.0462 13.9801 19.4582 14.189 19.8493 14.4468ZM9.63733 25.2468C9.65244 25.0974 9.68711 24.933 9.74133 24.7534C9.79467 24.573 9.87289 24.3819 9.976 24.1801C9.56533 23.5161 9.26889 22.7992 9.08667 22.0294C8.90533 21.2597 8.85822 20.4668 8.94533 19.6508C8.94533 18.9841 9.06089 18.3517 9.292 17.7534C9.52222 17.1552 9.84222 16.617 10.252 16.1388C9.93467 16.193 9.65556 16.3072 9.41467 16.4814C9.17378 16.6557 9.00178 16.8628 8.89867 17.1028C7.90756 17.3437 7.13511 17.9014 6.58133 18.7761C6.02756 19.6499 5.85822 20.6188 6.07333 21.6828C6.07333 22.6739 6.41956 23.5157 7.112 24.2081C7.80444 24.9006 8.64622 25.2468 9.63733 25.2468ZM22.3653 25.2468C23.5724 25.1748 24.5911 24.7015 25.4213 23.8268C26.2524 22.953 26.668 21.8997 26.668 20.6668C26.668 19.4339 26.2524 18.3806 25.4213 17.5068C24.5911 16.6321 23.5724 16.1588 22.3653 16.0868C22.2631 16.0868 22.1609 16.0912 22.0587 16.1001C21.9556 16.109 21.8529 16.1219 21.7507 16.1388C22.2484 16.7663 22.6369 17.465 22.916 18.2348C23.1951 19.0046 23.3347 19.8152 23.3347 20.6668C23.3347 21.5183 23.1951 22.329 22.916 23.0988C22.636 23.8686 22.2476 24.5672 21.7507 25.1948C21.8529 25.2126 21.9551 25.2254 22.0573 25.2334C22.1604 25.2423 22.2631 25.2468 22.3653 25.2468ZM16 28.0001C15.1449 28.0001 14.3378 27.8681 13.5787 27.6041C12.8187 27.3401 12.1284 26.9601 11.508 26.4641C11.2733 26.5432 11.0262 26.5966 10.7667 26.6241C10.5071 26.6526 10.2404 26.6668 9.96667 26.6668C8.32044 26.6668 6.91467 26.0837 5.74933 24.9174C4.58311 23.7521 4 22.3463 4 20.7001C4 19.0743 4.56756 17.6837 5.70267 16.5281C6.83778 15.3726 8.21289 14.777 9.828 14.7414C10.0164 14.7414 10.196 14.7543 10.3667 14.7801C10.5373 14.805 10.7084 14.8348 10.88 14.8694L6.46133 6.05078H12.8213L16 12.4108L19.18 6.05078H25.5387L21.1787 14.7774C21.3333 14.7428 21.4916 14.717 21.6533 14.7001C21.816 14.6823 21.9827 14.6734 22.1533 14.6734C23.7862 14.7152 25.1689 15.3139 26.3013 16.4694C27.4338 17.625 28 19.0241 28 20.6668C28 22.3352 27.4169 23.7521 26.2507 24.9174C25.0853 26.0837 23.6684 26.6668 22 26.6668C21.7316 26.6668 21.4707 26.6526 21.2173 26.6241C20.964 26.5957 20.7196 26.5423 20.484 26.4641C19.8636 26.9432 19.1747 27.3188 18.4173 27.5908C17.6609 27.8637 16.8551 28.0001 16 28.0001ZM13.9173 23.7174L14.6973 21.1468L12.616 19.6614H15.1867L16 16.9494L16.8133 19.6614H19.384L17.3027 21.1468L18.0827 23.7174L16 22.1334L13.9173 23.7174Z" fill="white"/>
</svg>
