<svg width="14" height="110" viewBox="0 0 14 110" fill="none" xmlns="http://www.w3.org/2000/svg">
<path fill-rule="evenodd" clip-rule="evenodd" d="M0.299805 11V0H1.6998V11V11.9677C1.6998 15.8666 2.67381 17.8623 4.05333 18.9304C5.47548 20.0314 7.50739 20.3 9.9998 20.3H12.9998C13.3864 20.3 13.6998 20.6134 13.6998 21C13.6998 21.3866 13.3864 21.7 12.9998 21.7H9.9998C7.49221 21.7 5.02413 21.4525 3.19628 20.0374C2.61371 19.5864 2.11306 19.0313 1.6998 18.3569V55H1.7V56.0638C1.7159 59.8995 2.68518 61.8712 4.05333 62.9304C5.47548 64.0314 7.50739 64.3 9.9998 64.3H12.9998C13.3864 64.3 13.6998 64.6134 13.6998 65C13.6998 65.3866 13.3864 65.7 12.9998 65.7H9.9998C7.49221 65.7 5.02413 65.4525 3.19628 64.0374C2.6138 63.5864 2.11322 63.0315 1.7 62.3572V99.9677C1.7 103.867 2.67401 105.862 4.05352 106.93C5.47568 108.031 7.50759 108.3 10 108.3H13C13.3866 108.3 13.7 108.613 13.7 109C13.7 109.387 13.3866 109.7 13 109.7H10C7.49241 109.7 5.02433 109.452 3.19648 108.037C1.326 106.589 0.300003 104.069 0.300003 99.9677V56.0662C0.299871 56.0335 0.299805 56.0007 0.299805 55.9677V11.9677V11Z" fill="white" fill-opacity="0.16"/>
</svg>
