{
	"asset":{
		"generator":"Khronos glTF Blender I/O v3.5.30",
		"version":"2.0"
	},
	"scene":0,
	"scenes":[
		{
			"name":"Scene",
			"nodes":[
				0
			]
		}
	],
	"nodes":[
		{
			"mesh":0,
			"name":"paddle.json",
			"translation":[
				0,
				13.472494125366211,
				0
			]
		}
	],
	"materials":[
		{
			"name":"Color_D03",
			"pbrMetallicRoughness":{
				"baseColorFactor":[
					1,
					0.8470588326454163,
					0.3921568691730499,
					1
				],
				"metallicFactor":0.5,
				"roughnessFactor":0.5
			}
		},
		{
			"name":"Color_A06",
			"pbrMetallicRoughness":{
				"baseColorFactor":[
					0,
					0,
					0,
					1
				],
				"metallicFactor":0.5,
				"roughnessFactor":0.5
			}
		},
		{
			"name":"Color_B04",
			"pbrMetallicRoughness":{
				"baseColorFactor":[
					1,
					0.6941176652908325,
					0.6000000238418579,
					1
				],
				"metallicFactor":0.5,
				"roughnessFactor":0.5
			}
		},
		{
			"name":"Color_007",
			"pbrMetallicRoughness":{
				"baseColorFactor":[
					0.22745098173618317,
					0.22745098173618317,
					0.22745098173618317,
					1
				],
				"metallicFactor":0.5,
				"roughnessFactor":0.5
			}
		},
		{
			"name":"Color_009",
			"pbrMetallicRoughness":{
				"baseColorFactor":[
					0.0470588244497776,
					0.0470588244497776,
					0.0470588244497776,
					1
				],
				"metallicFactor":0.5,
				"roughnessFactor":0.5
			}
		},
		{
			"name":"Wood_Floor_Light",
			"pbrMetallicRoughness":{
				"baseColorFactor":[
					0.800000011920929,
					0.686274528503418,
					0.4941176474094391,
					1
				],
				"metallicFactor":0.5,
				"roughnessFactor":0.5
			}
		},
		{
			"name":"Wood_Cherry_Original",
			"pbrMetallicRoughness":{
				"baseColorFactor":[
					0.3490196168422699,
					0.1921568661928177,
					0.0941176488995552,
					1
				],
				"metallicFactor":0.5,
				"roughnessFactor":0.5
			}
		},
		{
			"name":"FrontColor",
			"pbrMetallicRoughness":{
				"metallicFactor":0.5,
				"roughnessFactor":0.5
			}
		}
	],
	"meshes":[
		{
			"name":"Mesh_0",
			"primitives":[
				{
					"attributes":{
						"COLOR_0":0,
						"POSITION":1,
						"TEXCOORD_0":2,
						"NORMAL":3
					},
					"indices":4,
					"material":0
				},
				{
					"attributes":{
						"COLOR_0":5,
						"POSITION":6,
						"TEXCOORD_0":7,
						"NORMAL":8
					},
					"indices":9,
					"material":1
				},
				{
					"attributes":{
						"COLOR_0":10,
						"POSITION":11,
						"TEXCOORD_0":12,
						"NORMAL":13
					},
					"indices":14,
					"material":2
				},
				{
					"attributes":{
						"COLOR_0":15,
						"POSITION":16,
						"TEXCOORD_0":17,
						"NORMAL":18
					},
					"indices":14,
					"material":3
				},
				{
					"attributes":{
						"COLOR_0":19,
						"POSITION":20,
						"TEXCOORD_0":21,
						"NORMAL":22
					},
					"indices":23,
					"material":4
				},
				{
					"attributes":{
						"COLOR_0":24,
						"POSITION":25,
						"TEXCOORD_0":26,
						"NORMAL":27
					},
					"indices":28,
					"material":5
				},
				{
					"attributes":{
						"COLOR_0":29,
						"POSITION":30,
						"TEXCOORD_0":31,
						"NORMAL":32
					},
					"indices":33,
					"material":6
				},
				{
					"attributes":{
						"COLOR_0":34,
						"POSITION":35,
						"TEXCOORD_0":36,
						"NORMAL":37
					},
					"indices":38,
					"material":7
				}
			]
		}
	],
	"accessors":[
		{
			"bufferView":0,
			"componentType":5123,
			"count":1308,
			"normalized":true,
			"type":"VEC4"
		},
		{
			"bufferView":1,
			"componentType":5126,
			"count":1308,
			"max":[
				5.931119918823242,
				6.136970043182373,
				0.12815700471401215
			],
			"min":[
				-5.8502302169799805,
				-5.827340126037598,
				-0.5101649761199951
			],
			"type":"VEC3"
		},
		{
			"bufferView":2,
			"componentType":5126,
			"count":1308,
			"type":"VEC2"
		},
		{
			"bufferView":3,
			"componentType":5126,
			"count":1308,
			"type":"VEC3"
		},
		{
			"bufferView":4,
			"componentType":5123,
			"count":1308,
			"type":"SCALAR"
		},
		{
			"bufferView":5,
			"componentType":5123,
			"count":1122,
			"normalized":true,
			"type":"VEC4"
		},
		{
			"bufferView":6,
			"componentType":5126,
			"count":1122,
			"max":[
				5.9311299324035645,
				6.136970043182373,
				0.21388499438762665
			],
			"min":[
				-5.8502302169799805,
				-5.827380180358887,
				-0.5101649761199951
			],
			"type":"VEC3"
		},
		{
			"bufferView":7,
			"componentType":5126,
			"count":1122,
			"type":"VEC2"
		},
		{
			"bufferView":8,
			"componentType":5126,
			"count":1122,
			"type":"VEC3"
		},
		{
			"bufferView":9,
			"componentType":5123,
			"count":1122,
			"type":"SCALAR"
		},
		{
			"bufferView":10,
			"componentType":5123,
			"count":444,
			"normalized":true,
			"type":"VEC4"
		},
		{
			"bufferView":11,
			"componentType":5126,
			"count":444,
			"max":[
				5.93110990524292,
				6.136970043182373,
				-0.3900670111179352
			],
			"min":[
				-5.8502302169799805,
				-5.827089786529541,
				-0.5101649761199951
			],
			"type":"VEC3"
		},
		{
			"bufferView":12,
			"componentType":5126,
			"count":444,
			"type":"VEC2"
		},
		{
			"bufferView":13,
			"componentType":5126,
			"count":444,
			"type":"VEC3"
		},
		{
			"bufferView":14,
			"componentType":5123,
			"count":444,
			"type":"SCALAR"
		},
		{
			"bufferView":15,
			"componentType":5123,
			"count":444,
			"normalized":true,
			"type":"VEC4"
		},
		{
			"bufferView":16,
			"componentType":5126,
			"count":444,
			"max":[
				5.93110990524292,
				6.137010097503662,
				-0.5043709874153137
			],
			"min":[
				-5.8502302169799805,
				-5.827030181884766,
				-0.5958930253982544
			],
			"type":"VEC3"
		},
		{
			"bufferView":17,
			"componentType":5126,
			"count":444,
			"type":"VEC2"
		},
		{
			"bufferView":18,
			"componentType":5126,
			"count":444,
			"type":"VEC3"
		},
		{
			"bufferView":19,
			"componentType":5123,
			"count":1680,
			"normalized":true,
			"type":"VEC4"
		},
		{
			"bufferView":20,
			"componentType":5126,
			"count":1680,
			"max":[
				5.972330093383789,
				6.137010097503662,
				-0.02354699932038784
			],
			"min":[
				-5.8502302169799805,
				-13.289799690246582,
				-0.5958930253982544
			],
			"type":"VEC3"
		},
		{
			"bufferView":21,
			"componentType":5126,
			"count":1680,
			"type":"VEC2"
		},
		{
			"bufferView":22,
			"componentType":5126,
			"count":1680,
			"type":"VEC3"
		},
		{
			"bufferView":23,
			"componentType":5123,
			"count":1680,
			"type":"SCALAR"
		},
		{
			"bufferView":24,
			"componentType":5123,
			"count":5802,
			"normalized":true,
			"type":"VEC4"
		},
		{
			"bufferView":25,
			"componentType":5126,
			"count":5802,
			"max":[
				5.972330093383789,
				6.1369099617004395,
				0.35597899556159973
			],
			"min":[
				-5.8502302169799805,
				-13.289799690246582,
				-0.747501015663147
			],
			"type":"VEC3"
		},
		{
			"bufferView":26,
			"componentType":5126,
			"count":5802,
			"type":"VEC2"
		},
		{
			"bufferView":27,
			"componentType":5126,
			"count":5802,
			"type":"VEC3"
		},
		{
			"bufferView":28,
			"componentType":5123,
			"count":5802,
			"type":"SCALAR"
		},
		{
			"bufferView":29,
			"componentType":5123,
			"count":528,
			"normalized":true,
			"type":"VEC4"
		},
		{
			"bufferView":30,
			"componentType":5126,
			"count":528,
			"max":[
				1.0598700046539307,
				-5.793369770050049,
				0.5482760071754456
			],
			"min":[
				-1.0782599449157715,
				-13.289899826049805,
				-0.9401320219039917
			],
			"type":"VEC3"
		},
		{
			"bufferView":31,
			"componentType":5126,
			"count":528,
			"type":"VEC2"
		},
		{
			"bufferView":32,
			"componentType":5126,
			"count":528,
			"type":"VEC3"
		},
		{
			"bufferView":33,
			"componentType":5123,
			"count":528,
			"type":"SCALAR"
		},
		{
			"bufferView":34,
			"componentType":5123,
			"count":6,
			"normalized":true,
			"type":"VEC4"
		},
		{
			"bufferView":35,
			"componentType":5126,
			"count":6,
			"max":[
				1.0598599910736084,
				-5.793369770050049,
				-0.5677940249443054
			],
			"min":[
				-1.0191700458526611,
				-5.812560081481934,
				-0.5678470134735107
			],
			"type":"VEC3"
		},
		{
			"bufferView":36,
			"componentType":5126,
			"count":6,
			"type":"VEC2"
		},
		{
			"bufferView":37,
			"componentType":5126,
			"count":6,
			"type":"VEC3"
		},
		{
			"bufferView":38,
			"componentType":5123,
			"count":6,
			"type":"SCALAR"
		}
	],
	"bufferViews":[
		{
			"buffer":0,
			"byteLength":10464,
			"byteOffset":0,
			"target":34962
		},
		{
			"buffer":0,
			"byteLength":15696,
			"byteOffset":10464,
			"target":34962
		},
		{
			"buffer":0,
			"byteLength":10464,
			"byteOffset":26160,
			"target":34962
		},
		{
			"buffer":0,
			"byteLength":15696,
			"byteOffset":36624,
			"target":34962
		},
		{
			"buffer":0,
			"byteLength":2616,
			"byteOffset":52320,
			"target":34963
		},
		{
			"buffer":0,
			"byteLength":8976,
			"byteOffset":54936,
			"target":34962
		},
		{
			"buffer":0,
			"byteLength":13464,
			"byteOffset":63912,
			"target":34962
		},
		{
			"buffer":0,
			"byteLength":8976,
			"byteOffset":77376,
			"target":34962
		},
		{
			"buffer":0,
			"byteLength":13464,
			"byteOffset":86352,
			"target":34962
		},
		{
			"buffer":0,
			"byteLength":2244,
			"byteOffset":99816,
			"target":34963
		},
		{
			"buffer":0,
			"byteLength":3552,
			"byteOffset":102060,
			"target":34962
		},
		{
			"buffer":0,
			"byteLength":5328,
			"byteOffset":105612,
			"target":34962
		},
		{
			"buffer":0,
			"byteLength":3552,
			"byteOffset":110940,
			"target":34962
		},
		{
			"buffer":0,
			"byteLength":5328,
			"byteOffset":114492,
			"target":34962
		},
		{
			"buffer":0,
			"byteLength":888,
			"byteOffset":119820,
			"target":34963
		},
		{
			"buffer":0,
			"byteLength":3552,
			"byteOffset":120708,
			"target":34962
		},
		{
			"buffer":0,
			"byteLength":5328,
			"byteOffset":124260,
			"target":34962
		},
		{
			"buffer":0,
			"byteLength":3552,
			"byteOffset":129588,
			"target":34962
		},
		{
			"buffer":0,
			"byteLength":5328,
			"byteOffset":133140,
			"target":34962
		},
		{
			"buffer":0,
			"byteLength":13440,
			"byteOffset":138468,
			"target":34962
		},
		{
			"buffer":0,
			"byteLength":20160,
			"byteOffset":151908,
			"target":34962
		},
		{
			"buffer":0,
			"byteLength":13440,
			"byteOffset":172068,
			"target":34962
		},
		{
			"buffer":0,
			"byteLength":20160,
			"byteOffset":185508,
			"target":34962
		},
		{
			"buffer":0,
			"byteLength":3360,
			"byteOffset":205668,
			"target":34963
		},
		{
			"buffer":0,
			"byteLength":46416,
			"byteOffset":209028,
			"target":34962
		},
		{
			"buffer":0,
			"byteLength":69624,
			"byteOffset":255444,
			"target":34962
		},
		{
			"buffer":0,
			"byteLength":46416,
			"byteOffset":325068,
			"target":34962
		},
		{
			"buffer":0,
			"byteLength":69624,
			"byteOffset":371484,
			"target":34962
		},
		{
			"buffer":0,
			"byteLength":11604,
			"byteOffset":441108,
			"target":34963
		},
		{
			"buffer":0,
			"byteLength":4224,
			"byteOffset":452712,
			"target":34962
		},
		{
			"buffer":0,
			"byteLength":6336,
			"byteOffset":456936,
			"target":34962
		},
		{
			"buffer":0,
			"byteLength":4224,
			"byteOffset":463272,
			"target":34962
		},
		{
			"buffer":0,
			"byteLength":6336,
			"byteOffset":467496,
			"target":34962
		},
		{
			"buffer":0,
			"byteLength":1056,
			"byteOffset":473832,
			"target":34963
		},
		{
			"buffer":0,
			"byteLength":48,
			"byteOffset":474888,
			"target":34962
		},
		{
			"buffer":0,
			"byteLength":72,
			"byteOffset":474936,
			"target":34962
		},
		{
			"buffer":0,
			"byteLength":48,
			"byteOffset":475008,
			"target":34962
		},
		{
			"buffer":0,
			"byteLength":72,
			"byteOffset":475056,
			"target":34962
		},
		{
			"buffer":0,
			"byteLength":12,
			"byteOffset":475128,
			"target":34963
		}
	],
	"buffers":[
		{
			"byteLength":475140,
			"uri":"data:application/octet-stream;base64,"
		}
	]
}
